<svg width="221" height="216" viewBox="0 0 221 216" fill="none" xmlns="http://www.w3.org/2000/svg">
<path fill-rule="evenodd" clip-rule="evenodd" d="M127.068 0.0532401C129.115 0.061736 131.16 0.0328925 133.207 0.00123819C146.156 -0.0693453 157.889 2.87989 169.69 8.31178L171.996 9.35866C177.764 12.0615 182.593 15.2057 187.315 19.4993L189.565 21.2923C199.712 29.6052 207.216 41.4392 209.315 54.4993C210.897 70.4568 210.897 70.4568 205.94 77.4993C204.455 79.2172 202.912 80.8861 201.315 82.4993L199.049 84.8508C180.86 102.377 157.358 110.542 132.319 110.675C130.608 110.698 128.898 110.722 127.188 110.747C124.531 110.782 121.874 110.812 119.217 110.825C112.381 110.714 108.995 110.659 105.729 111.26C102.524 111.851 99.4354 113.075 93.3148 115.499L90.7132 116.956C79.7649 124.29 72.2346 133.36 69.3148 146.499C62.1996 147.036 56.8648 145.196 50.3148 142.499C50.8159 129.219 60.3449 117.983 69.5452 109.074C74.8867 104.322 76.3673 103.004 78.054 102.639C78.7008 102.499 79.3779 102.499 80.3148 102.499C77.7661 99.8757 75.3585 97.5325 72.4398 95.3118C64.9676 89.1651 57.9202 78.0278 56.5023 68.3743L56.3148 65.4993C59.8724 64.3583 63.2721 64.3931 66.9527 64.4307C67.1558 64.4328 67.3598 64.4349 67.5648 64.4368L71.3929 64.4641L74.3148 64.4993L75.5296 67.0618C81.5017 78.9789 88.5478 85.8147 101.315 90.4993C104.095 91.305 106.549 91.622 109.441 91.6128L111.867 91.6126L114.455 91.5969L117.129 91.5927C119.941 91.5871 122.753 91.5745 125.565 91.5618C127.474 91.5568 129.382 91.5522 131.291 91.5481C135.966 91.5371 140.64 91.5198 145.315 91.4993C140.881 79.2602 133.279 70.1366 121.604 64.0969C109.171 58.4677 96.2417 58.126 82.8128 58.1287C80.318 58.1243 77.8249 58.0878 75.3304 58.0501C58.5338 57.9334 43.9876 62.0007 31.3148 73.4993C23.1985 81.6593 18.2887 91.7741 17.6898 103.374C18.2668 115.024 22.209 126.053 30.3148 134.499L32.6273 137.124C46.9646 149.794 61.5382 152.869 80.1988 152.815C82.4808 152.812 84.7614 152.835 87.0433 152.861C103.751 152.933 120.981 150.553 134.276 139.531C138.308 135.514 142.075 130.675 144.159 125.339C146.042 122.342 149.258 121.557 152.531 120.758C153.17 120.602 153.81 120.446 154.444 120.273C175.067 116.152 194.463 123.607 212.315 133.499L215.076 134.734C217.317 135.813 218.76 136.559 220.315 138.499C221.693 144.813 220.399 151.467 218.315 157.499L217.127 160.976C214.103 169.37 210.48 175.926 204.315 182.499L201.85 185.238C195.073 192.433 187.827 197.57 179.315 202.499L176.764 203.991C154.651 215.959 126.371 218.072 102.315 211.499C83.0672 205.407 64.4848 193.777 54.4319 175.773C53.1093 173.081 52.0782 170.4 51.3148 167.499L48.7405 167.195C38.9782 165.213 29.6457 159.074 22.3148 152.499L20.014 150.445C8.55579 139.622 0.677813 125.427 0.0764716 109.523C-0.125355 99.2287 -0.265316 89.9591 4.31475 80.4993L5.59991 77.6907C9.11726 70.6266 13.7607 65.0632 19.3148 59.4993L20.9554 57.8235C31.0031 48.4101 45.6341 41.5318 59.3148 40.4993L59.6312 38.2923C62.2816 27.4635 73.7502 17.6565 82.6273 11.6868C96.3262 3.4867 111.227 -0.0464604 127.068 0.0532401ZM173.854 137.156C183.845 138.551 192.313 141.324 200.315 147.499C199.848 159.642 192.964 169.411 184.315 177.499C164.664 194.248 140.353 198.324 115.315 196.499C109.667 195.604 104.561 193.769 99.3148 191.499L96.4437 190.3C87.9032 186.387 80.6018 180.431 74.3148 173.499V171.499L76.3082 171.455C104.803 170.754 130.865 168.711 151.951 147.273C152.669 146.419 153.035 145.984 153.315 145.498C153.607 144.992 153.805 144.432 154.209 143.288C157.451 135.424 165.113 136.234 172.455 137.01C172.923 137.059 173.39 137.109 173.854 137.156ZM192.252 61.1243C190.99 48.8779 184.773 39.7567 175.436 32.1555C158.058 19.3623 136.996 14.681 115.596 17.9094L113.315 18.4993C110.105 19.3007 106.96 20.2159 103.803 21.2063C93.8061 24.9118 84.0818 30.6624 79.3148 40.4993C81.2777 40.5397 83.2523 40.5637 85.2337 40.5878C97.0345 40.7313 109.075 40.8777 120.315 44.4993C140.181 51.9976 152.253 63.7831 161.846 82.5696L163.315 85.4993C170.962 84.1243 178.354 78.7309 184.455 74.1321C188.821 70.2279 191.914 67.1567 192.252 61.1243Z" fill="url(#paint0_linear_142_95)"/>
<defs>
<linearGradient id="paint0_linear_142_95" x1="221.315" y1="95.9993" x2="0.314755" y2="99.9993" gradientUnits="userSpaceOnUse">
<stop offset="0.240385" stop-color="#EE4A11"/>
<stop offset="1" stop-color="#9F1211"/>
</linearGradient>
</defs>
</svg>
