<svg width="443" height="249" viewBox="0 0 443 249" fill="none" xmlns="http://www.w3.org/2000/svg">
<g clip-path="url(#clip0_142_77)">
<path fill-rule="evenodd" clip-rule="evenodd" d="M165.753 15.554C167.801 15.5625 169.845 15.5336 171.893 15.502C184.841 15.4314 196.575 18.3806 208.375 23.8125L210.681 24.8594C216.449 27.5623 221.278 30.7064 226 35L228.25 36.793C238.397 45.1059 245.901 56.94 248 70C249.583 85.9575 249.583 85.9575 244.625 93C243.141 94.7179 241.598 96.3868 240 98L237.734 100.352C219.545 117.878 196.043 126.043 171.004 126.176C169.294 126.199 167.583 126.223 165.873 126.248C163.216 126.283 160.559 126.313 157.902 126.326C151.066 126.215 147.68 126.159 144.415 126.761C141.209 127.352 138.121 128.575 132 131L129.398 132.457C118.45 139.791 110.92 148.861 108 162C100.885 162.537 95.55 160.697 89 158C89.5011 144.72 99.0302 133.484 108.23 124.574C113.572 119.822 115.053 118.505 116.739 118.14C117.386 118 118.063 118 119 118C116.451 115.376 114.044 113.033 111.125 110.812C103.653 104.666 96.6054 93.5285 95.1875 83.875L95 81C98.5576 79.859 101.957 79.8938 105.638 79.9314C105.841 79.9335 106.045 79.9356 106.25 79.9375L110.078 79.9648L113 80L114.215 82.5625C120.187 94.4796 127.233 101.315 140 106C142.78 106.806 145.234 107.123 148.126 107.114L150.552 107.113L153.141 107.098L155.814 107.093C158.626 107.088 161.438 107.075 164.25 107.062C166.159 107.057 168.068 107.053 169.977 107.049C174.651 107.038 179.326 107.021 184 107C179.566 94.7609 171.965 85.6373 160.289 79.5977C147.856 73.9684 134.927 73.6268 121.498 73.6294C119.003 73.625 116.51 73.5885 114.016 73.5508C97.2191 73.4341 82.6728 77.5014 70 89C61.8837 97.16 56.9739 107.275 56.375 118.875C56.952 130.524 60.8942 141.554 69 150L71.3125 152.625C85.6498 165.295 100.223 168.369 118.884 168.316C121.166 168.313 123.447 168.336 125.729 168.361C142.437 168.434 159.666 166.054 172.961 155.031C176.993 151.014 180.76 146.175 182.844 140.84C184.727 137.843 187.944 137.058 191.216 136.259C191.855 136.103 192.496 135.947 193.129 135.773C213.752 131.653 233.148 139.108 251 149L253.762 150.234C256.003 151.314 257.446 152.06 259 154C260.379 160.314 259.084 166.967 257 173L255.812 176.477C252.788 184.871 249.166 191.427 243 198L240.535 200.738C233.758 207.934 226.512 213.07 218 218L215.449 219.492C193.336 231.459 165.056 233.573 141 227C121.752 220.908 103.17 209.278 93.1172 191.273C91.7946 188.582 90.7635 185.901 90 183L87.4258 182.695C77.6635 180.714 68.331 174.574 61 168L58.6992 165.945C47.241 155.123 39.3631 140.928 38.7617 125.023C38.5599 114.729 38.4199 105.46 43 96L44.2852 93.1914C47.8025 86.1273 52.4459 80.5639 58 75L59.6406 73.3242C69.6884 63.9108 84.3193 57.0325 98 56L98.3164 53.793C100.967 42.9642 112.435 33.1572 121.312 27.1875C135.011 18.9874 149.912 15.4543 165.753 15.554ZM212.54 152.656C222.53 154.052 230.998 156.825 239 163C238.533 175.142 231.649 184.911 223 193C203.35 209.749 179.038 213.825 154 212C148.353 211.104 143.247 209.27 138 207L135.129 205.801C126.588 201.888 119.287 195.932 113 189V187L114.993 186.956C143.488 186.255 169.55 184.212 190.637 162.773C191.354 161.92 191.721 161.484 192.001 160.999C192.292 160.493 192.49 159.933 192.895 158.789C196.137 150.925 203.798 151.735 211.14 152.511C211.609 152.56 212.075 152.609 212.54 152.656ZM230.938 76.625C229.675 64.3786 223.458 55.2574 214.121 47.6562C196.744 34.8631 175.681 30.1817 154.281 33.4102L152 34C148.79 34.8014 145.645 35.7166 142.488 36.707C132.491 40.4125 122.767 46.1631 118 56C119.963 56.0404 121.938 56.0644 123.919 56.0885C135.72 56.232 147.761 56.3785 159 60C178.866 67.4983 190.938 79.2838 200.531 98.0703L202 101C209.647 99.625 217.039 94.2316 223.141 89.6328C227.506 85.7286 230.599 82.6574 230.938 76.625Z" fill="#EE4A11"/>
<path d="M305 67C305.025 68.0247 305.05 69.0494 305.076 70.1052C305.17 73.8941 305.27 77.6828 305.372 81.4714C305.416 83.1136 305.457 84.7559 305.497 86.3982C305.555 88.7539 305.619 91.1093 305.684 93.4648C305.7 94.2034 305.717 94.9419 305.734 95.7029C305.535 99.143 305.535 99.143 307 102C310.103 102.089 313.183 102.115 316.285 102.098C317.216 102.096 318.147 102.095 319.106 102.093C322.091 102.088 325.077 102.075 328.063 102.062C330.081 102.057 332.1 102.053 334.119 102.049C339.079 102.038 344.04 102.021 349 102C350.521 98.9579 350.374 95.7195 350.563 92.375C350.627 91.3154 350.627 91.3154 350.693 90.2344C350.799 88.4898 350.9 86.7449 351 85C352.98 84.67 354.96 84.34 357 84C357.049 85.048 357.098 86.096 357.148 87.1758C357.223 88.5547 357.299 89.9336 357.375 91.3125C357.406 92.0028 357.437 92.6931 357.469 93.4043C357.681 97.0699 357.919 98.879 360 102C363.346 102.587 363.346 102.587 367.125 102.688C369.047 102.786 369.047 102.786 371.008 102.887C371.995 102.924 372.983 102.961 374 103C373.68 102.255 373.361 101.51 373.031 100.742C371.656 97.0842 371.163 93.8101 372 90C374.491 85.8588 377.485 82.8164 382 81C388.009 80.6123 392.542 81.2709 398 84C397.34 85.98 396.68 87.96 396 90C395.446 89.8402 394.891 89.6803 394.32 89.5156C391.79 88.9533 389.466 88.7964 386.875 88.75C386.006 88.7242 385.137 88.6984 384.242 88.6719C383.502 88.7802 382.762 88.8884 382 89C379.673 92.4912 379.497 93.8922 380 98C381.445 100.338 381.445 100.338 384 102C386.895 102.291 389.38 102.382 392.25 102.25C392.995 102.232 393.74 102.214 394.508 102.195C396.339 102.148 398.17 102.077 400 102C400.381 103.991 400.713 105.993 401 108C398.886 110.114 394.183 109.164 391.258 109.168C390.379 109.171 389.499 109.175 388.593 109.178C386.729 109.183 384.864 109.185 383 109.185C380.144 109.187 377.289 109.206 374.434 109.225C372.625 109.228 370.816 109.23 369.008 109.23C368.151 109.238 367.295 109.245 366.413 109.252C365.616 109.249 364.818 109.246 363.997 109.243C363.296 109.244 362.595 109.246 361.873 109.247C360 109 360 109 357 107C354.971 107.257 354.971 107.257 353 108C350.203 108.932 348.415 109.146 345.516 109.193C344.612 109.209 343.707 109.225 342.775 109.242C338.648 109.286 334.522 109.327 330.395 109.35C328.218 109.367 326.042 109.394 323.866 109.432C320.725 109.487 317.586 109.509 314.445 109.523C313.474 109.546 312.503 109.569 311.503 109.592C306.809 109.577 304.713 109.556 300.91 106.592C297.863 102.457 297.866 99.5755 297.902 94.5859C297.904 93.8563 297.905 93.1267 297.907 92.3749C297.912 90.0416 297.925 87.7083 297.938 85.375C297.943 83.7943 297.947 82.2135 297.951 80.6328C297.962 76.7552 297.979 72.8776 298 69C302.75 67 302.75 67 305 67Z" fill="#5A5D61"/>
<path fill-rule="evenodd" clip-rule="evenodd" d="M379 118.687L369 119V151L379 151.312C386.668 151.654 392.006 151.15 398 146C400.857 142.25 401.215 139.03 401.375 134.437C401.223 130.121 401.061 127.253 398 124C392.897 119.775 388.699 118.451 382.102 118.55L379 118.687ZM392 127C387.272 123.595 387.272 123.595 375 124V146C375.845 146.028 376.659 146.066 377.448 146.103C382.897 146.356 387.158 146.555 392 143C394.395 140.026 394.972 138.262 395.375 134.438C394.975 130.768 394.614 129.524 392 127Z" fill="#585B60"/>
<path d="M275 81C280.42 81.8746 284.692 85.2118 287.875 89.5625C290.996 96.324 290 100.762 290 109C281.09 109 272.18 109 263 109C263 104 263 104 264 103C265.416 102.913 266.836 102.893 268.254 102.902C269.535 102.907 269.535 102.907 270.842 102.912C271.74 102.92 272.637 102.929 273.562 102.938C274.464 102.942 275.366 102.947 276.295 102.951C278.53 102.963 280.765 102.979 283 103C282.728 101.559 282.443 100.121 282.152 98.6836C281.995 97.8824 281.838 97.0811 281.676 96.2556C280.316 91.7162 276.776 89.5174 273 87C273.875 82.125 273.875 82.125 275 81Z" fill="#5B5E62"/>
<path d="M298 119C307.57 119 317.14 119 327 119C327 120.65 327 122.3 327 124C323.37 124 319.74 124 316 124C316 132.91 316 141.82 316 151C313.69 151 311.38 151 309 151C309 142.09 309 133.18 309 124C305.37 124 301.74 124 298 124C298 122.35 298 120.7 298 119Z" fill="#5F6266"/>
<path fill-rule="evenodd" clip-rule="evenodd" d="M284 119L280.562 118.938C280.133 118.945 279.751 118.947 279.41 118.949C276.694 118.963 276.535 118.963 275.14 121.667L274.109 123.832L272.965 126.237L271.75 128.812C268.289 136.13 264.989 143.475 262 151H269L270 149L271 144H290L292 151H299C299 150.187 299 149.704 298.916 149.237C298.793 148.555 298.492 147.904 297.75 146.305C296.854 144.549 295.958 142.793 295.066 141.035L294.09 139.109C292.258 135.514 290.449 131.908 288.646 128.297C287.928 126.858 287.21 125.419 286.49 123.98L285.504 122.008L284 119ZM286.153 136.666C284.723 132.645 283.403 128.935 280 126L279.16 127.574L278.062 129.688C276.326 132.992 275.77 135.15 275 139H287C286.704 138.213 286.426 137.434 286.153 136.666Z" fill="#5B5E63"/>
<path fill-rule="evenodd" clip-rule="evenodd" d="M344.562 118.938L348 119L349.504 122.008L350.49 123.98C351.21 125.419 351.928 126.858 352.646 128.297C354.449 131.908 356.258 135.514 358.09 139.109L359.066 141.035C359.958 142.793 360.854 144.549 361.75 146.305C363 149 363 149 363 151H356L353 145L335 144L334 149L333 151H326C328.989 143.475 332.289 136.13 335.75 128.812L336.965 126.237L338.109 123.832L339.14 121.667C340.71 118.624 340.714 119.005 344.562 118.938ZM349.195 133.773L348.125 131.375C347.984 131.053 347.856 130.75 347.735 130.464C346.844 128.355 346.344 127.172 344 126C343.672 126.328 343.452 126.548 343.262 126.792C342.872 127.292 342.61 127.892 341.809 129.723L340.438 133.062C339.623 135.041 338.809 137.02 338 139H350C350 137.328 350 136.588 349.861 135.875C349.75 135.309 349.552 134.759 349.195 133.773Z" fill="#5B5E62"/>
<path d="M357 71C359.625 71.375 359.625 71.375 362 72C362.625 74.375 362.625 74.375 363 77C361 79 361 79 358.375 79.125C357.591 79.0837 356.808 79.0425 356 79C355.375 76.125 355.375 76.125 355 73C355.66 72.34 356.32 71.68 357 71Z" fill="#64676A"/>
<path d="M347 71C349.625 71.375 349.625 71.375 352 72C352.625 74.375 352.625 74.375 353 77C351 79 351 79 348.375 79.125C347.591 79.0837 346.808 79.0425 346 79C345.375 76.125 345.375 76.125 345 73C345.66 72.34 346.32 71.68 347 71Z" fill="#63666A"/>
<path d="M391 112C389 115 389 115 385.961 115.73C384.186 115.957 384.186 115.957 382.375 116.188C381.186 116.346 379.998 116.505 378.773 116.668C377.401 116.832 377.401 116.832 376 117C376.33 116.01 376.66 115.02 377 114C381.381 112.307 386.326 111.698 391 112Z" fill="#7C7D80"/>
</g>
<defs>
<clipPath id="clip0_142_77">
<rect width="443" height="249" fill="white"/>
</clipPath>
</defs>
</svg>
