<?xml version="1.0" encoding="UTF-8"?>
<svg version="1.1" xmlns="http://www.w3.org/2000/svg" width="443" height="249">
<path d="M0 0 C146.19 0 292.38 0 443 0 C443 82.17 443 164.34 443 249 C296.81 249 150.62 249 0 249 C0 166.83 0 84.66 0 0 Z " fill="#FDFDFC" transform="translate(0,0)"/>
<path d="M0 0 C2.04749877 0.00849585 4.09217962 -0.02034763 6.1394043 -0.05200195 C19.08793826 -0.12258548 30.82135377 2.82664636 42.62182617 8.25854492 C43.38293701 8.60401367 44.14404785 8.94948242 44.92822266 9.30541992 C50.69599687 12.00830993 55.52484112 15.15246577 60.24682617 19.44604492 C61.36057617 20.33356445 61.36057617 20.33356445 62.49682617 21.23901367 C72.64379369 29.55198537 80.14822533 41.38600221 82.24682617 54.44604492 C83.829521 70.40352471 83.829521 70.40352471 78.87182617 77.44604492 C77.3874714 79.16395202 75.84435976 80.83284924 74.24682617 82.44604492 C73.1253418 83.61006836 73.1253418 83.61006836 71.98120117 84.79760742 C53.79206262 102.32422768 30.29025004 110.48875109 5.25073242 110.62182617 C3.54043354 110.64501614 1.83014703 110.66913314 0.11987305 110.6940918 C-2.53719525 110.72916618 -5.19380254 110.75856071 -7.85107422 110.77197266 C-21.39736398 110.5512769 -21.39736398 110.5512769 -33.75317383 115.44604492 C-34.61168945 115.92686523 -35.47020508 116.40768555 -36.35473633 116.90307617 C-47.30305568 124.23718199 -54.83331174 133.30666551 -57.75317383 146.44604492 C-64.86831138 146.98303644 -70.20313129 145.14312126 -76.75317383 142.44604492 C-76.25204459 129.16612001 -66.72299413 117.92979866 -57.52270508 109.02026367 C-50.13282643 102.44604492 -50.13282643 102.44604492 -46.75317383 102.44604492 C-49.30182944 99.82242885 -51.70946275 97.47930335 -54.62817383 95.25854492 C-62.10028309 89.11182265 -69.14775518 77.97454584 -70.56567383 68.32104492 C-70.65848633 66.89791992 -70.65848633 66.89791992 -70.75317383 65.44604492 C-66.99917585 64.24211123 -63.42099971 64.34726876 -59.50317383 64.38354492 C-57.60825195 64.39708008 -57.60825195 64.39708008 -55.67504883 64.41088867 C-54.71083008 64.42249023 -53.74661133 64.4340918 -52.75317383 64.44604492 C-52.35227539 65.29166992 -51.95137695 66.13729492 -51.53833008 67.00854492 C-45.56624166 78.92563746 -38.52013998 85.76147309 -25.75317383 90.44604492 C-22.97283318 91.25177839 -20.5187343 91.56872075 -17.62719727 91.55957031 C-16.42640533 91.55945702 -16.42640533 91.55945702 -15.20135498 91.55934143 C-14.34704895 91.55418015 -13.49274292 91.54901886 -12.61254883 91.54370117 C-11.28927582 91.54157875 -11.28927582 91.54157875 -9.93927002 91.53941345 C-7.12720317 91.53382494 -4.31521653 91.52127453 -1.50317383 91.50854492 C0.40567919 91.50352844 2.31453345 91.49896579 4.22338867 91.49487305 C8.89789865 91.48385926 13.57234882 91.4666025 18.24682617 91.44604492 C13.81306378 79.20695115 6.21135307 70.0833146 -5.46411133 64.04370117 C-17.8974129 58.41445046 -30.82621759 58.0728022 -44.25512695 58.07543945 C-46.74995487 58.07105058 -49.2430298 58.03454769 -51.73754883 57.99682617 C-68.53408141 57.88013443 -83.08035947 61.94745987 -95.75317383 73.44604492 C-103.86942022 81.60608401 -108.77925004 91.7208368 -109.37817383 103.32104492 C-108.80116581 114.97036889 -104.85894455 126.00017193 -96.75317383 134.44604492 C-95.99004883 135.31229492 -95.22692383 136.17854492 -94.44067383 137.07104492 C-80.10334055 149.74124643 -65.52970134 152.81528974 -46.86914062 152.76171875 C-44.58715261 152.75857452 -42.30648545 152.78203308 -40.0246582 152.80737305 C-23.31644109 152.87987606 -6.08736627 150.50016629 7.20776367 139.47729492 C11.24020886 135.46029971 15.00658335 130.62129622 17.09057617 125.28588867 C19.34139225 121.70435362 23.49617507 121.28179276 27.37573242 120.21948242 C47.99926533 116.09893801 67.39497831 123.55375204 85.24682617 133.44604492 C86.61387695 134.05706055 86.61387695 134.05706055 88.00854492 134.68041992 C90.24946836 135.7598176 91.69250348 136.50561659 93.24682617 138.44604492 C94.62553007 144.76010917 93.33121532 151.41334171 91.24682617 157.44604492 C90.85495117 158.59331055 90.46307617 159.74057617 90.05932617 160.92260742 C87.03532216 169.31680704 83.41254675 175.87285063 77.24682617 182.44604492 C76.43342773 183.34967773 75.6200293 184.25331055 74.78198242 185.18432617 C68.00471726 192.37957245 60.75884725 197.5164571 52.24682617 202.44604492 C51.40506836 202.9384668 50.56331055 203.43088867 49.69604492 203.93823242 C27.58292845 215.90533075 -0.69674135 218.01884068 -24.75317383 211.44604492 C-44.00075118 205.35421909 -62.58314782 193.72371862 -72.63598633 175.71948242 C-73.95861081 173.02798784 -74.98971289 170.34719649 -75.75317383 167.44604492 C-76.60266602 167.34549805 -77.4521582 167.24495117 -78.32739258 167.14135742 C-88.08967946 165.15995826 -97.42220517 159.02053464 -104.75317383 152.44604492 C-105.89206055 151.42897461 -105.89206055 151.42897461 -107.05395508 150.39135742 C-118.51213834 139.56867004 -126.39011393 125.37407157 -126.99145508 109.46948242 C-127.19328123 99.17543956 -127.33324198 89.90581185 -122.75317383 80.44604492 C-122.32907227 79.51920898 -121.9049707 78.59237305 -121.46801758 77.63745117 C-117.95066395 70.57335099 -113.30723089 65.0099496 -107.75317383 59.44604492 C-107.21176758 58.89303711 -106.67036133 58.3400293 -106.11254883 57.77026367 C-96.06479548 48.35683819 -81.4338324 41.47854746 -67.75317383 40.44604492 C-67.64875977 39.71772461 -67.5443457 38.9894043 -67.43676758 38.23901367 C-64.78637324 27.41025964 -53.31769725 17.60324626 -44.44067383 11.63354492 C-30.74170101 3.43345556 -15.84110466 -0.09970058 0 0 Z " fill="#D14414" transform="translate(165.753173828125,15.553955078125)"/>
<path d="M0 0 C9.990596 1.39578876 18.45880821 4.16868333 26.46044922 10.34375 C25.99343975 22.48599611 19.10925415 32.25513623 10.46044922 40.34375 C-9.189884 57.09289247 -33.50113673 61.16858357 -58.53955078 59.34375 C-64.18695702 58.44822368 -69.29288854 56.61376001 -74.53955078 54.34375 C-75.48701172 53.94800781 -76.43447266 53.55226562 -77.41064453 53.14453125 C-85.95105628 49.23180075 -93.25250387 43.27562223 -99.53955078 36.34375 C-99.53955078 35.68375 -99.53955078 35.02375 -99.53955078 34.34375 C-98.88172607 34.32916748 -98.22390137 34.31458496 -97.54614258 34.29956055 C-69.05114208 33.59827477 -42.98931618 31.55595181 -21.90283203 10.1171875 C-20.4371137 8.37419667 -20.4371137 8.37419667 -19.64501953 6.1328125 C-16.19619116 -2.23243079 -7.74642713 -0.78305443 0 0 Z " fill="#FDFCFB" transform="translate(212.53955078125,152.65625)"/>
<path d="M0 0 C9.33680607 7.60119897 15.55370907 16.7223171 16.81640625 28.96875 C16.47789695 35.00115936 13.3852548 38.0723583 9.01953125 41.9765625 C2.91816246 46.57535539 -4.47389478 51.96876102 -12.12109375 53.34375 C-12.60578125 52.37695312 -13.09046875 51.41015625 -13.58984375 50.4140625 C-23.18264384 31.62755764 -35.25468873 19.84207278 -55.12109375 12.34375 C-68.24750704 8.11412794 -82.46738121 8.62455013 -96.12109375 8.34375 C-91.35407329 -1.49313991 -81.62977213 -7.24373875 -71.6328125 -10.94921875 C-68.47571056 -11.939612 -65.33106619 -12.85483406 -62.12109375 -13.65625 C-61.36828125 -13.85089844 -60.61546875 -14.04554687 -59.83984375 -14.24609375 C-38.43962238 -17.47457542 -17.37741357 -12.79318791 0 0 Z " fill="#FDFBFA" transform="translate(214.12109375,47.65625)"/>
<path d="M0 0 C0.02505615 1.02472412 0.0501123 2.04944824 0.07592773 3.10522461 C0.16984484 6.89409676 0.27010317 10.68277881 0.37231445 14.47143555 C0.41572297 16.11364303 0.45739358 17.75589739 0.49731445 19.39819336 C0.5548744 21.75388745 0.61860892 24.10934428 0.68359375 26.46484375 C0.70030624 27.20339096 0.71701874 27.94193817 0.73423767 28.7028656 C0.53548013 32.14300627 0.53548013 32.14300627 2 35 C5.10251201 35.08874135 8.1826812 35.11518455 11.28515625 35.09765625 C12.21597519 35.0962413 13.14679413 35.09482635 14.1058197 35.09336853 C17.09141191 35.08775172 20.07693029 35.0751964 23.0625 35.0625 C25.08137913 35.05748716 27.10025943 35.05292388 29.11914062 35.04882812 C34.07945572 35.03777683 39.03971532 35.02050095 44 35 C45.52106634 31.95786733 45.37429338 28.71952428 45.5625 25.375 C45.62727539 24.31539062 45.62727539 24.31539062 45.69335938 23.234375 C45.79944751 21.48981463 45.90022889 19.74493303 46 18 C47.98 17.67 49.96 17.34 52 17 C52.04898438 18.04800781 52.09796875 19.09601563 52.1484375 20.17578125 C52.22348143 21.55471354 52.29902857 22.9336185 52.375 24.3125 C52.4059375 25.00279297 52.436875 25.69308594 52.46875 26.40429688 C52.68124919 30.06990789 52.91933861 31.87900792 55 35 C58.34613512 35.58687784 58.34613512 35.58687784 62.125 35.6875 C64.04699219 35.78611328 64.04699219 35.78611328 66.0078125 35.88671875 C66.99523437 35.92410156 67.98265625 35.96148437 69 36 C68.6803125 35.25492188 68.360625 34.50984375 68.03125 33.7421875 C66.65558983 30.08418205 66.16293261 26.81009983 67 23 C69.4912156 18.85875848 72.48503821 15.81636394 77 14 C83.0088934 13.61232946 87.54176868 14.27088434 93 17 C92.34 18.98 91.68 20.96 91 23 C90.44570313 22.84015625 89.89140625 22.6803125 89.3203125 22.515625 C86.78978412 21.95328536 84.46587449 21.79640372 81.875 21.75 C81.00617188 21.72421875 80.13734375 21.6984375 79.2421875 21.671875 C78.50226563 21.78015625 77.76234375 21.8884375 77 22 C74.67250655 25.49124017 74.49700684 26.89222251 75 31 C76.4449972 33.33827423 76.4449972 33.33827423 79 35 C81.89449949 35.2906124 84.37949935 35.38186045 87.25 35.25 C87.99507813 35.23195312 88.74015625 35.21390625 89.5078125 35.1953125 C91.33909701 35.14835649 93.16971649 35.07661652 95 35 C95.38133299 36.9914056 95.71325582 38.99279077 96 41 C93.88555958 43.11444042 89.18263968 42.16418575 86.2578125 42.16796875 C85.37850067 42.17129715 84.49918884 42.17462555 83.5932312 42.17805481 C81.72866338 42.18312837 79.86408644 42.185463 77.99951172 42.18530273 C75.14405335 42.18748544 72.28898349 42.20562604 69.43359375 42.22460938 C67.62500133 42.22754394 65.81640706 42.22952831 64.0078125 42.23046875 C63.15148224 42.23765427 62.29515198 42.24483978 61.41287231 42.25224304 C60.61549652 42.24916641 59.81812073 42.24608978 58.99658203 42.24291992 C58.29566437 42.24434494 57.5947467 42.24576996 56.87258911 42.24723816 C55 42 55 42 52 40 C49.97080157 40.25723969 49.97080157 40.25723969 48 41 C45.20269287 41.93243571 43.41526332 42.14599872 40.51611328 42.19287109 C39.61152374 42.20893402 38.7069342 42.22499695 37.77493286 42.24154663 C33.64830373 42.28608765 29.52183276 42.32704283 25.39501953 42.35009766 C23.21847859 42.36667278 21.04199242 42.39398305 18.86572266 42.43212891 C15.72529916 42.48687329 12.58614875 42.50876613 9.4453125 42.5234375 C8.47433624 42.54610687 7.50335999 42.56877625 6.50296021 42.59213257 C1.80944068 42.57744732 -0.28672703 42.55571955 -4.09033203 39.59228516 C-7.13662425 35.45708562 -7.13385026 32.57548526 -7.09765625 27.5859375 C-7.0962413 26.85629791 -7.09482635 26.12665833 -7.09336853 25.37490845 C-7.08776531 23.04156415 -7.07521235 20.70831536 -7.0625 18.375 C-7.05748541 16.79427222 -7.05292243 15.21354293 -7.04882812 13.6328125 C-7.03779484 9.75517146 -7.02052811 5.87760193 -7 2 C-2.25 0 -2.25 0 0 0 Z " fill="#5A5D61" transform="translate(305,67)"/>
<path d="M0 0 C3.3 -0.103125 6.6 -0.20625 10 -0.3125 C11.53527344 -0.38078003 11.53527344 -0.38078003 13.1015625 -0.45043945 C19.69876515 -0.54937196 23.89684804 0.77535117 29 5 C32.06123654 8.25256382 32.22312353 11.12070329 32.375 15.4375 C32.21472824 20.02990247 31.85708054 23.25008178 29 27 C23.00581986 32.15007489 17.66810042 32.65353249 10 32.3125 C6.7 32.209375 3.4 32.10625 0 32 C0 21.44 0 10.88 0 0 Z " fill="#585B60" transform="translate(369,119)"/>
<path d="M0 0 C1.134375 0.020625 2.26875 0.04125 3.4375 0.0625 C3.93378906 1.05507812 4.43007813 2.04765625 4.94140625 3.0703125 C5.42963867 4.04653564 5.42963867 4.04653564 5.92773438 5.04248047 C6.64700447 6.4813482 7.3657482 7.92047917 8.08398438 9.35986328 C9.88634158 12.97014052 11.69555376 16.57643026 13.52734375 20.171875 C13.84952881 20.80722168 14.17171387 21.44256836 14.50366211 22.09716797 C15.39571051 23.85514466 16.29151379 25.61121452 17.1875 27.3671875 C18.4375 30.0625 18.4375 30.0625 18.4375 32.0625 C16.1275 32.0625 13.8175 32.0625 11.4375 32.0625 C10.4475 30.0825 9.4575 28.1025 8.4375 26.0625 C2.4975 25.7325 -3.4425 25.4025 -9.5625 25.0625 C-9.8925 26.7125 -10.2225 28.3625 -10.5625 30.0625 C-10.8925 30.7225 -11.2225 31.3825 -11.5625 32.0625 C-13.8725 32.0625 -16.1825 32.0625 -18.5625 32.0625 C-15.57363839 24.53777806 -12.27343614 17.1924275 -8.8125 9.875 C-8.41168213 9.02510498 -8.01086426 8.17520996 -7.59790039 7.29956055 C-7.22012451 6.50590088 -6.84234863 5.71224121 -6.453125 4.89453125 C-6.11313477 4.18014893 -5.77314453 3.4657666 -5.42285156 2.72973633 C-3.85226765 -0.3138271 -3.8482952 0.06751395 0 0 Z " fill="#5B5E62" transform="translate(344.5625,118.9375)"/>
<path d="M0 0 C1.134375 0.020625 2.26875 0.04125 3.4375 0.0625 C3.93378906 1.05507812 4.43007813 2.04765625 4.94140625 3.0703125 C5.42963867 4.04653564 5.42963867 4.04653564 5.92773438 5.04248047 C6.64700447 6.4813482 7.3657482 7.92047917 8.08398438 9.35986328 C9.88634158 12.97014052 11.69555376 16.57643026 13.52734375 20.171875 C13.84952881 20.80722168 14.17171387 21.44256836 14.50366211 22.09716797 C15.39571051 23.85514466 16.29151379 25.61121452 17.1875 27.3671875 C18.4375 30.0625 18.4375 30.0625 18.4375 32.0625 C16.1275 32.0625 13.8175 32.0625 11.4375 32.0625 C10.7775 29.7525 10.1175 27.4425 9.4375 25.0625 C3.1675 25.0625 -3.1025 25.0625 -9.5625 25.0625 C-9.8925 26.7125 -10.2225 28.3625 -10.5625 30.0625 C-10.8925 30.7225 -11.2225 31.3825 -11.5625 32.0625 C-13.8725 32.0625 -16.1825 32.0625 -18.5625 32.0625 C-15.57363839 24.53777806 -12.27343614 17.1924275 -8.8125 9.875 C-8.41168213 9.02510498 -8.01086426 8.17520996 -7.59790039 7.29956055 C-7.22012451 6.50590088 -6.84234863 5.71224121 -6.453125 4.89453125 C-6.11313477 4.18014893 -5.77314453 3.4657666 -5.42285156 2.72973633 C-3.85226765 -0.3138271 -3.8482952 0.06751395 0 0 Z " fill="#5B5E63" transform="translate(280.5625,118.9375)"/>
<path d="M0 0 C12.27189579 -0.40456799 12.27189579 -0.40456799 17 3 C19.61429492 5.52414681 19.97469861 6.76807058 20.375 10.4375 C19.97244324 14.26178923 19.39539302 16.02640867 17 19 C11.45629996 23.06993471 6.67381172 22.22001577 0 22 C0 14.74 0 7.48 0 0 Z " fill="#F9F9F8" transform="translate(375,124)"/>
<path d="M0 0 C5.4203931 0.87462819 9.69159701 4.21184925 12.875 8.5625 C15.99570389 15.3240251 15 19.76178488 15 28 C6.09 28 -2.82 28 -12 28 C-12 23 -12 23 -11 22 C-9.58429877 21.91348389 -8.164405 21.89295096 -6.74609375 21.90234375 C-5.46508789 21.90717773 -5.46508789 21.90717773 -4.15820312 21.91210938 C-3.26037109 21.92048828 -2.36253906 21.92886719 -1.4375 21.9375 C-0.53580078 21.94201172 0.36589844 21.94652344 1.29492188 21.95117188 C3.53001314 21.96299775 5.76497437 21.9794778 8 22 C7.72826665 20.55911551 7.44309841 19.1207607 7.15234375 17.68359375 C6.99499756 16.88236084 6.83765137 16.08112793 6.67553711 15.25561523 C5.31601302 10.71617068 1.77611555 8.51741037 -2 6 C-1.125 1.125 -1.125 1.125 0 0 Z " fill="#5B5E62" transform="translate(275,81)"/>
<path d="M0 0 C9.57 0 19.14 0 29 0 C29 1.65 29 3.3 29 5 C25.37 5 21.74 5 18 5 C18 13.91 18 22.82 18 32 C15.69 32 13.38 32 11 32 C11 23.09 11 14.18 11 5 C7.37 5 3.74 5 0 5 C0 3.35 0 1.7 0 0 Z " fill="#5F6266" transform="translate(298,119)"/>
<path d="M0 0 C4.05235429 3.49501043 5.150806 8.09007109 7 13 C3.04 13 -0.92 13 -5 13 C-4.22998773 9.14993864 -3.6738858 6.99223427 -1.9375 3.6875 C-1.57527344 2.99011719 -1.21304687 2.29273438 -0.83984375 1.57421875 C-0.56269531 1.05472656 -0.28554688 0.53523438 0 0 Z " fill="#F0F0F0" transform="translate(280,126)"/>
<path d="M0 0 C2.66246807 1.33123403 2.94601652 2.6764378 4.125 5.375 C4.47820312 6.16648438 4.83140625 6.95796875 5.1953125 7.7734375 C6 10 6 10 6 13 C2.04 13 -1.92 13 -6 13 C-5.1905146 11.01959844 -4.37732831 9.04070923 -3.5625 7.0625 C-3.11003906 5.96035156 -2.65757812 4.85820312 -2.19140625 3.72265625 C-1 1 -1 1 0 0 Z " fill="#F0F0F0" transform="translate(344,126)"/>
<path d="M0 0 C2.625 0.375 2.625 0.375 5 1 C5.625 3.375 5.625 3.375 6 6 C4 8 4 8 1.375 8.125 C0.59125 8.08375 -0.1925 8.0425 -1 8 C-1.625 5.125 -1.625 5.125 -2 2 C-1.34 1.34 -0.68 0.68 0 0 Z " fill="#64676A" transform="translate(357,71)"/>
<path d="M0 0 C2.625 0.375 2.625 0.375 5 1 C5.625 3.375 5.625 3.375 6 6 C4 8 4 8 1.375 8.125 C0.59125 8.08375 -0.1925 8.0425 -1 8 C-1.625 5.125 -1.625 5.125 -2 2 C-1.34 1.34 -0.68 0.68 0 0 Z " fill="#63666A" transform="translate(347,71)"/>
<path d="M0 0 C0.66 0.33 1.32 0.66 2 1 C-3.28 6.28 -8.56 11.56 -14 17 C-14.66 16.67 -15.32 16.34 -16 16 C-10.96679794 10.22494276 -5.96260189 4.82082706 0 0 Z " fill="#C23E32" transform="translate(114,120)"/>
<path d="M0 0 C-2 3 -2 3 -5.0390625 3.73046875 C-6.81410156 3.95669922 -6.81410156 3.95669922 -8.625 4.1875 C-9.81351562 4.34605469 -11.00203125 4.50460938 -12.2265625 4.66796875 C-13.59941406 4.83232422 -13.59941406 4.83232422 -15 5 C-14.67 4.01 -14.34 3.02 -14 2 C-9.619084 0.30737336 -4.67375574 -0.30153263 0 0 Z " fill="#7C7D80" transform="translate(391,112)"/>
</svg>
